<svg xmlns="http://www.w3.org/2000/svg" viewBox="0 0 462.3 139">
  <g class="foreground">
    <polygon points="0 0 12.3 0 12.3 82.7 86.7 0 97 0 97 101.3 84.4 101.3 86 16.9 11 101.3 0 101.3 "/>
    <path d="M186.4 22.6h11.6v85h-11.6V82.7c0 0-13.2 12-33.7 12.4v-8.5c0 0 28.2-0.4 32.8-21.5 0 0 3.7-23.1-31.9-27.6v-10.8c0 0 21.8 0.5 33.1 14.3L186.4 22.6z"/>
    <path d="M147.2 37.7V27.6c0 0-33 2-40 28.7 0 0-7 33.7 40 39.7v-10c0 0-30.9-1.2-30.4-25.9C116.8 60.1 118.1 41.2 147.2 37.7"/>
    <path d="M211.6 22.6H224v21.9c0 0 23.9-17.9 59.4-16.9v9.4c0 0-55.8 1.3-58 28.1 0 0 4 25.9 58 26.4v9.9c0 0-24.8 6.5-60.7-19.2v45.2H211.6V22.6z"/>
    <path d="M290 27.6v9.9c0 0 55.4-0.9 58 27.7 0 0 0.9 24.6-58 26.4v9.9c0 0 64.7 3 69.1-36.2C359.1 65.1 356 27.6 290 27.6"/>
    <path d="M450.7 23.7h11.6v85h-11.6V83.8c0 0-13.2 12-33.7 12.4v-8.5c0 0 28.2-0.4 32.8-21.5 0 0 3.7-23.1-31.9-27.6v-10.8c0 0 21.8 0.5 33.1 14.3L450.7 23.7z"/>
    <path d="M411.5 38.8V28.7c0 0-33 2-40 28.7 0 0-7 33.7 40 39.7v-10c0 0-30.9-1.2-30.4-25.9C381.1 61.2 382.4 42.3 411.5 38.8"/>
    <path d="M233.7 104.8h2.4v4.8 4.8 5.7c0 0-1 6.4 8.5 7.3v2.6c0 0-11.1-0.8-10.9-8.5C233.9 113.6 233.7 104.8 233.7 104.8"/>
    <path d="M255.4 112.6c-6 0-10.8 3.9-10.8 8.6 0 4.8 4.8 8.6 10.8 8.6s10.8-3.9 10.8-8.6C266.2 116.4 261.4 112.6 255.4 112.6M255.3 128.2c-4.8 0-8.7-3.1-8.7-6.8 0-3.8 3.9-6.8 8.8-6.8 4.8 0 8.8 3.1 8.8 6.8C264.1 125.2 260.2 128.2 255.3 128.2"/>
    <path d="M270.2 113.1h2.2v6.4c0 0-1.1 8.3 8.3 8.3 9.4 0 9.4-6.6 9.4-6.6v-7.7h2.3v15.9h-2.3v-2.7c0 0-3.2 3.4-9.4 3.4 0 0-10.5 0.2-10.5-10.3V113.1z"/>
    <polygon points="298.1 111.1 316.2 127.2 316.2 113.7 318.8 113.7 318.8 132.2 300.5 116.2 300.5 129.7 298.1 129.7 "/>
    <path d="M344.8 122.8l-0.1 0.2c0.1-0.4 0.1-0.9 0.1-1.3 0-4.8-4.8-8.6-10.8-8.6s-10.8 3.9-10.8 8.6c0 4.8 4.8 8.6 10.8 8.6 3.6 0 6.8-1.4 8.8-3.6 0.5 11.3-8.8 10.4-8.8 10.4v2C348 139.2 344.8 122.8 344.8 122.8M334 128.7c-4.8 0-8.7-3.1-8.7-6.8 0-3.8 3.9-6.8 8.8-6.8s8.8 3.1 8.8 6.8C342.7 125.6 338.8 128.7 334 128.7"/>
    <path d="M391.3 115.6v-2.1c0 0-10.9-0.3-10.9 8.3 0 8.6 10.9 9.5 10.9 9.5v-2.2c0 0-8.8-0.5-8.8-7.1C382.4 122 382.6 115.6 391.3 115.6"/>
    <path d="M412.9 122.5c0-4.8-4.8-8.6-10.8-8.6s-10.8 3.9-10.8 8.6c0 4.8 4.8 8.6 10.8 8.6 3.4 0 6.4-1.2 8.4-3.2v3h2.3v-7.1l0 0C412.8 123.4 412.9 122.9 412.9 122.5M402 129.5c-4.8 0-8.7-3.1-8.7-6.8 0-3.8 3.9-6.8 8.8-6.8 4.8 0 8.8 3.1 8.8 6.8C410.8 126.4 406.8 129.5 402 129.5"/>
    <path d="M420.1 130.9h-2.5v-17.1c0 0 1.1-8 11.3-8v2.1c0 0-8.5 0.8-8.5 5.7h8v2.3h-8.1L420.1 130.9z"/>
    <path d="M440 114.6v1.8c0 0-14.7 3.2 0 6v2c0 0-14.6 2.8 0 5.9v2.2c0 0-15.6-2.9-5.6-8.9C434.4 123.5 424 116.6 440 114.6"/>
    <path d="M357.8 113.5v1.8c0 0-14.7 3.2 0 6v2c0 0-14.6 2.8 0 5.9v2.2c0 0-15.6-2.9-5.6-8.9C352.2 122.5 341.8 115.5 357.8 113.5"/>
  </g>
</svg>
