<?xml version="1.0" encoding="utf-8"?>
<svg version="1.1" id="Layer_1" xmlns="http://www.w3.org/2000/svg" xmlns:xlink="http://www.w3.org/1999/xlink" x="0px" y="0px"
	 width="512px" height="512px" viewBox="0 0 512 512" style="enable-background:new 0 0 512 512;" xml:space="preserve">
<path d="M360,147.5c-27.8-27.8-64.8-43.1-104.1-43.1c-81.2,0-147.2,66-147.2,147.1c0,25.9,6.8,51.3,19.6,73.6
	l-20.9,76.3l78-20.5c21.5,11.7,45.7,17.9,70.3,17.9h0.1c81.2,0,147.2-66,147.2-147.2C403.1,212.2,387.8,175.3,360,147.5
	 M255.9,373.9c-22,0-43.5-5.9-62.3-17l-4.5-2.7l-46.3,12.2l12.4-45.1l-2.9-4.6c-12.2-19.5-18.7-42-18.7-65.2
	c0-67.5,54.9-122.3,122.4-122.3c32.7,0,63.4,12.7,86.5,35.8c23.1,23.1,35.8,53.8,35.8,86.5C378.2,319,323.3,373.9,255.9,373.9
	 M322.9,282.3c3.7,1.9,6.1,2.8,7,4.3c0.9,1.5,0.9,8.9-2.2,17.5c-3.1,8.6-17.8,16.4-24.8,17.5c-6.3,1-14.3,1.3-23.2-1.5
	c-5.3-1.7-12.2-4-21-7.7c-36.9-15.9-61-53.1-62.8-55.6c-1.9-2.4-15-19.9-15-38s9.5-27,12.9-30.7c3.4-3.7,7.4-4.6,9.8-4.6
	s4.9,0,7,0.1c2.2,0.1,5.3-0.8,8.3,6.3c3.1,7.4,10.4,25.5,11.3,27.3c0.9,1.9,1.5,4,0.3,6.5c-1.2,2.4-1.9,4-3.6,6.1
	c-1.9,2.2-3.8,4.8-5.5,6.5c-1.9,1.9-3.8,3.8-1.6,7.5c2.1,3.7,9.5,15.7,20.5,25.5c14.1,12.5,25.9,16.4,29.6,18.2s5.8,1.5,8-0.9
	s9.2-10.8,11.6-14.4c2.4-3.7,4.9-3.1,8.3-1.9C301.2,271.5,319.3,280.4,322.9,282.3"/>
<g>
	<g>
		<path d="M352,0H160C71.6,0,0,71.6,0,160v192c0,88.4,71.6,160,160,160h192c88.4,0,160-71.6,160-160V160C512,71.6,440.4,0,352,0z
			 M464,352c0,61.8-50.2,112-112,112H160c-61.8,0-112-50.2-112-112V160C48,98.2,98.2,48,160,48h192c61.8,0,112,50.2,112,112V352z"/>
	</g>
</g>
</svg>
